# xmcd
#
# Track frame offsets:
#	150
#	20532
#	34322
#	50361
#	66312
#	83787
#	96719
#	111390
#	128371
#	145302
#	160322
#	174263
#	189444
#	201910
#	213552
#	228836
#	244224
#	262905
#	279067
#	295326
#	308978
#	324532
#
# Disc length: 4582 seconds
#
# Revision: 2
# Processed by: cddbd v1.5.1PL0 Copyright (c) Steve Scherf et al.
# Submitted via: audiograbber 1.81.02
#
DISCID=4311e416
DTITLE=Diserse - Das Beste aus dem Musikantenstadl [CD1)
DYEAR=2004
DGENRE=Country
TTITLE0=James Last and his Orchestra - Besame Mucho
TTITLE1=Kastelruther Spatzen - Gloria alla Montagna
TTITLE2=Brunner and Brunner - Wir sind alle über 40
TTITLE3=Patrick Lindner - Mammamia
TTITLE4=Schürzenjäger - Treff´ ma uns in der Mitt´n
TTITLE5=Francine Jordi - Optimisten küssen besser
TTITLE6=The Glenn Miller Orchestra - In the Mood
TTITLE7=Heino - Das goldene Heino-Medley
TTITLE8=Klostertaler - Die kleine Kneipe
TTITLE9=Zellberg Buam - Hax´ntanz
TTITLE10=Wind - Lass die Sonne in dein Herz
TTITLE11=Vikinger - Kuschel Dich in meine Arme
TTITLE12=Stefan Mross - Dr. Schiwago
TTITLE13=Palast Orchester mit seinem Sänger Max Raabe - Mein kleiner grüner Kak
TTITLE13=tus
TTITLE14=Hansi Hinterseer - Ich lieb dich über alles auf der Welt
TTITLE15=Global.Kryner - Something Stupid
TTITLE16=Freddy Quinn - La Paloma
TTITLE17=Jantje Smit - Und diese Rosen sind für Dich, liebe Mamatschi
TTITLE18=Gaby Albrecht - Der Wind hat mir ein Lied erzählt
TTITLE19=Karl Moik - The Blue Canadian Rockies
TTITLE20=Andy Borg - Wenn das kein Grund zum Feiern ist
TTITLE21=Die Alpenoberkrainer - Alpski-Blumen
EXTD=
EXTT0=
EXTT1=
EXTT2=
EXTT3=
EXTT4=
EXTT5=
EXTT6=
EXTT7=
EXTT8=
EXTT9=
EXTT10=
EXTT11=
EXTT12=
EXTT13=
EXTT14=
EXTT15=
EXTT16=
EXTT17=
EXTT18=
EXTT19=
EXTT20=
EXTT21=
PLAYORDER=
